<svg xmlns="http://www.w3.org/2000/svg" width="119.842" height="96.917" viewBox="0 0 119.842 96.917">
  <g id="diploma_2_" data-name="diploma(2)" transform="translate(0 -44.474)">
    <path id="Path_116" data-name="Path 116" d="M117.909,44.474H1.933A1.933,1.933,0,0,0,0,46.407v93.052a1.933,1.933,0,0,0,1.933,1.933H117.909a1.933,1.933,0,0,0,1.933-1.933V46.407A1.933,1.933,0,0,0,117.909,44.474Zm-1.933,93.052H3.866V48.34h112.11Z" fill="#8c0428"/>
    <path id="Path_117" data-name="Path 117" d="M31.933,146.33A7.674,7.674,0,0,1,39.6,154a1.933,1.933,0,0,0,1.933,1.933h81.316A1.933,1.933,0,0,0,124.78,154a7.674,7.674,0,0,1,7.665-7.665,1.933,1.933,0,0,0,1.933-1.933V86.005a1.933,1.933,0,0,0-1.933-1.933,7.674,7.674,0,0,1-7.665-7.665,1.933,1.933,0,0,0-1.933-1.933H111.853a1.933,1.933,0,1,0,0,3.866h9.224a11.562,11.562,0,0,0,9.436,9.436v54.85a11.562,11.562,0,0,0-9.436,9.436H43.3a11.562,11.562,0,0,0-9.436-9.436V87.776A11.562,11.562,0,0,0,43.3,78.34h60.819a1.933,1.933,0,0,0,0-3.866H41.531A1.933,1.933,0,0,0,39.6,76.407a7.674,7.674,0,0,1-7.665,7.665A1.933,1.933,0,0,0,30,86.005V144.4A1.933,1.933,0,0,0,31.933,146.33Z" transform="translate(-22.268 -22.268)" fill="#8c0428"/>
    <path id="Path_118" data-name="Path 118" d="M156.931,137.123a1.929,1.929,0,0,0,1.527-.746l4.489-5.77,4.489,5.77a1.933,1.933,0,0,0,3.051,0l4.488-5.77,4.487,5.77a1.933,1.933,0,0,0,3.051,0l4.487-5.77,4.487,5.77A1.933,1.933,0,1,0,194.54,134l-6.013-7.732a1.933,1.933,0,0,0-3.051,0l-4.487,5.77-4.487-5.77a1.933,1.933,0,0,0-3.051,0l-4.488,5.77-4.489-5.77a1.933,1.933,0,0,0-3.051,0L155.407,134a1.933,1.933,0,0,0,1.524,3.12Z" transform="translate(-115.052 -60.162)" fill="#8c0428"/>
    <path id="Path_119" data-name="Path 119" d="M171.162,225.526H111.836a1.933,1.933,0,0,0,0,3.866h59.327a1.933,1.933,0,1,0,0-3.866Z" transform="translate(-81.578 -134.391)" fill="#8c0428"/>
    <path id="Path_120" data-name="Path 120" d="M158.559,197.459a1.933,1.933,0,0,0-1.933-1.933H81.836a1.933,1.933,0,1,0,0,3.866h74.79A1.933,1.933,0,0,0,158.559,197.459Z" transform="translate(-59.31 -112.122)" fill="#8c0428"/>
    <path id="Path_121" data-name="Path 121" d="M195,275.191a9.665,9.665,0,1,0,9.665-9.665A9.675,9.675,0,0,0,195,275.191Zm15.463,0a5.8,5.8,0,1,1-5.8-5.8A5.805,5.805,0,0,1,210.463,275.191Z" transform="translate(-144.744 -164.082)" fill="#8c0428"/>
    <path id="Path_122" data-name="Path 122" d="M111.836,295.526a1.933,1.933,0,1,0,0,3.866h14.2a1.933,1.933,0,0,0,0-3.866Z" transform="translate(-81.578 -186.35)" fill="#8c0428"/>
    <path id="Path_123" data-name="Path 123" d="M301.133,295.526h-14.2a1.933,1.933,0,1,0,0,3.866h14.2a1.933,1.933,0,0,0,0-3.866Z" transform="translate(-211.549 -186.35)" fill="#8c0428"/>
  </g>
</svg>
