<svg id="earth-globe" xmlns="http://www.w3.org/2000/svg" width="98.325" height="113.452" viewBox="0 0 98.325 113.452">
  <g id="Group_604" data-name="Group 604">
    <g id="Group_603" data-name="Group 603">
      <path id="Path_63" data-name="Path 63" d="M131.988,236.61a1.891,1.891,0,1,0-3.746.518,46.053,46.053,0,0,1,.433,6.285,45.435,45.435,0,0,1-44.836,45.379c-6.724-4.3-13.026-9.556-10.218-16.108,5.041-11.765.35-16.152-1.655-18.025l-.376-.357A8.888,8.888,0,0,0,69.8,253c-1.384-.83-1.757-1.053-1.014-3.283a7.1,7.1,0,0,1,1.9-2.971c1.749-1.849,3.086-3.689,3.086-9.036a7.126,7.126,0,0,0-4.332-6.811c-3.122-1.38-7.291-.893-9.5,1.108a4.277,4.277,0,0,0-1.269,4.67c1.348,4.037-1.732,9.872-7.488,14.189-1.524,1.144-1.98.62-2.25.306-1.688-1.946-1.558-7.48-.172-8.864a2.8,2.8,0,0,0,.737-3.171c-1.532-3.475-11.3-3.207-13.24-3.114a1.55,1.55,0,0,0-.229.059,1.66,1.66,0,0,0-.69.267,1.743,1.743,0,0,0-.244.18,1.878,1.878,0,0,0-.263.3,1.686,1.686,0,0,0-.172.282,1.837,1.837,0,0,0-.125.369,1.778,1.778,0,0,0-.068.2,44.7,44.7,0,0,0-.342,5.733,49.049,49.049,0,0,0,37.331,47.727,1.89,1.89,0,1,0,.906-3.67,45.276,45.276,0,0,1-34.455-44.057c0-1.31.049-2.47.149-3.649a27.906,27.906,0,0,1,7.3.787c-2.169,3.386-1.931,10.044.72,13.1,1.9,2.188,4.657,2.28,7.376.24,7.265-5.448,10.721-12.676,8.806-18.41-.06-.187-.121-.363.227-.679.995-.9,3.525-1.286,5.421-.446a3.328,3.328,0,0,1,2.08,3.353c0,4.268-.86,5.179-2.052,6.438a10.772,10.772,0,0,0-2.742,4.374c-1.7,5.107,1.027,6.745,2.657,7.722a5.85,5.85,0,0,1,1.061.732c.138.138.295.286.467.446,1.662,1.554,4.757,4.449.762,13.773-4.531,10.572,7.151,17.942,12.139,21.091a1.907,1.907,0,0,0,1.01.291,49.219,49.219,0,0,0,49.163-49.163A49.738,49.738,0,0,0,131.988,236.61Z" transform="translate(-34.132 -179.124)" fill="#8c0428"/>
      <path id="Path_64" data-name="Path 64" d="M301.657,290.839a15.245,15.245,0,0,1-1.492.386c-2.613,0-4.27,2.023-5.478,3.5-.461.565-1.286,1.624-1.827,1.59a5.923,5.923,0,0,0-2.67-.643,4.556,4.556,0,0,0-4.591,3.156c-.3,1.286.144,3.046,2.309,4.13,3.071,1.535,6.246,3.122,7.658,4.534a6.558,6.558,0,0,0,4.614,1.53c2.978,0,6.938-1.447,8.3-5.527a10.627,10.627,0,0,1,3.063-4.026c1.441-1.38,2.8-2.681,2.823-4.553a4.352,4.352,0,0,0-1.452-3.137,7.3,7.3,0,0,0-5.382-2A21.809,21.809,0,0,0,301.657,290.839Zm8.925,4.026a8.122,8.122,0,0,1-1.656,1.874,13.892,13.892,0,0,0-4.035,5.561c-.934,2.8-4.088,2.94-4.71,2.94a3.6,3.6,0,0,1-1.938-.42c-1.849-1.849-5.149-3.5-8.643-5.245l-.021-.009a2.109,2.109,0,0,1,1.592.132,4.133,4.133,0,0,0,1.862.461c2.093,0,3.415-1.615,4.58-3.039.853-1.04,1.73-2.114,2.553-2.114a10.074,10.074,0,0,0,2.53-.531,18.558,18.558,0,0,1,4.835-.917,3.647,3.647,0,0,1,2.706.894A3.45,3.45,0,0,1,310.582,294.864Z" transform="translate(-229.812 -225.566)" fill="#8c0428"/>
      <path id="Path_65" data-name="Path 65" d="M240.725,72.088a45.743,45.743,0,0,1,11.364.961,9.875,9.875,0,0,0,1.862,5.786c.208.333.5.787.529.849,0,6.783-1.386,7.885-1.371,7.889-3.065,0-8.095,2.738-9.986,6.268a6.041,6.041,0,0,0,.263,6.453,45.717,45.717,0,0,1,2.456,4.358c1.607,3.112,3.392,6.565,6.189,6.565a4.293,4.293,0,0,0,1.925-.5c2.2-1.1,3.786-4.237,5.313-7.267a24.093,24.093,0,0,1,2.248-3.916c1.919.261,2.857,2,4.126,4.746.934,2.023,1.9,4.113,3.8,5.062,3.2,1.6,13.7-.076,19.51-2.541a1.8,1.8,0,0,0,.2-.138,1.9,1.9,0,0,0,.312-.214,1.846,1.846,0,0,0,.233-.27,1.8,1.8,0,0,0,.195-.3,1.69,1.69,0,0,0,.115-.34,1.849,1.849,0,0,0,.07-.35,1.812,1.812,0,0,0-.026-.376,1.552,1.552,0,0,0-.015-.246A49.448,49.448,0,0,0,261.2,71.92a1.89,1.89,0,1,0-1.433,3.5,45.671,45.671,0,0,1,26.13,28.507c-5.883,2.073-13.419,2.7-14.762,2.035-.711-.355-1.426-1.9-2.055-3.264-1.318-2.855-3.124-6.765-7.734-6.97-2.409-.127-3.725,2.6-5.451,6.023-1.014,2.008-2.543,5.045-3.763,5.642-.7-.164-2.1-2.863-2.927-4.474a48.924,48.924,0,0,0-2.67-4.72,2.27,2.27,0,0,1-.076-2.572c1.3-2.424,5.2-4.271,6.652-4.271,3.419,0,5.153-3.925,5.153-11.67a5.426,5.426,0,0,0-1.11-2.865,5.764,5.764,0,0,1-1.138-4.825,1.892,1.892,0,0,0-1.384-2.237,49.744,49.744,0,0,0-14.059-1.448,1.892,1.892,0,0,0-1.813,1.967A1.857,1.857,0,0,0,240.725,72.088Z" transform="translate(-193.415 -53.142)" fill="#8c0428"/>
      <path id="Path_66" data-name="Path 66" d="M238.457,425.819a6.51,6.51,0,0,0,4.6-1.777,4.841,4.841,0,0,0,.862-5.194,10.758,10.758,0,0,0-2.494-4,2.9,2.9,0,0,0-2.07-.836c-2.36,0-5.128,2.715-6.138,5.153a4.286,4.286,0,0,0,.645,4.878A6.5,6.5,0,0,0,238.457,425.819Zm-1.437-5.812a6.279,6.279,0,0,1,2.073-2.108,6.948,6.948,0,0,1,1.238,2.144c.21.626.229,1.146.051,1.324a3.31,3.31,0,0,1-3.839.021A2.292,2.292,0,0,1,237.02,420.007Z" transform="translate(-188.744 -322.272)" fill="#8c0428"/>
      <path id="Path_67" data-name="Path 67" d="M41.876,164.953a1.812,1.812,0,0,0,.412.045,1.892,1.892,0,0,0,1.844-1.479c1.346-6.041,6.041-14.94,9.849-18.67a1.891,1.891,0,1,0-2.645-2.7c-4.3,4.215-9.394,13.817-10.9,20.55A1.891,1.891,0,0,0,41.876,164.953Z" transform="translate(-39.008 -110.229)" fill="#8c0428"/>
      <path id="Path_68" data-name="Path 68" d="M98.983,39a1.893,1.893,0,0,0,2.954,0l7.509-9.39c2.076-2.371,6.141-9.273,6.141-14.482a15.127,15.127,0,0,0-30.254,0c0,6.091,5.429,13.539,6.087,14.418ZM100.46,3.782a11.357,11.357,0,0,1,11.345,11.345c0,3.91-3.438,9.972-5.258,12.054L100.46,34.79l-6.049-7.558c-1.83-2.454-5.3-8.142-5.3-12.105A11.357,11.357,0,0,1,100.46,3.782Z" transform="translate(-73.988 0)" fill="#8c0428"/>
      <path id="Path_69" data-name="Path 69" d="M140.315,58.763a3.782,3.782,0,1,0-3.782-3.782A3.786,3.786,0,0,0,140.315,58.763Z" transform="translate(-113.842 -39.854)" fill="#8c0428"/>
    </g>
  </g>
</svg>
