<svg xmlns="http://www.w3.org/2000/svg" width="105.706" height="113.211" viewBox="0 0 105.706 113.211">
  <g id="diploma" transform="translate(0)">
    <g id="Group_584" data-name="Group 584" transform="translate(0)">
      <g id="Group_583" data-name="Group 583">
        <path id="Path_3" data-name="Path 3" d="M307.1,172.359a1.887,1.887,0,0,0,1.888,1.888h18.876a1.888,1.888,0,0,0,0-3.775H308.986A1.887,1.887,0,0,0,307.1,172.359Z" transform="translate(-242.919 -132.762)" fill="#8c0428"/>
        <path id="Path_4" data-name="Path 4" d="M358.3,223.559a1.887,1.887,0,0,0,1.888,1.888h11.326a1.888,1.888,0,1,0,0-3.775H360.186A1.887,1.887,0,0,0,358.3,223.559Z" transform="translate(-282.793 -172.636)" fill="#8c0428"/>
        <path id="Path_5" data-name="Path 5" d="M329.827,123.046a1.888,1.888,0,0,0,0-3.775h-3.775a1.888,1.888,0,0,0,0,3.775Z" transform="translate(-256.21 -92.888)" fill="#8c0428"/>
        <path id="Path_6" data-name="Path 6" d="M240.719,221.67a1.888,1.888,0,1,0,0,3.775h18.876a1.888,1.888,0,1,0,0-3.775Z" transform="translate(-189.753 -172.636)" fill="#8c0428"/>
        <path id="Path_7" data-name="Path 7" d="M103.951,128.318H68.086a5.67,5.67,0,0,1-5.663-5.663V35.825a1.887,1.887,0,0,0-1.888-1.888A9.449,9.449,0,0,0,51.1,43.375a1.888,1.888,0,1,0,3.775,0,5.674,5.674,0,0,1,3.775-5.34v84.62a9.449,9.449,0,0,0,9.438,9.438h35.864a1.888,1.888,0,0,0,0-3.775Z" transform="translate(-43.547 -26.43)" fill="#8c0428"/>
        <path id="Path_8" data-name="Path 8" d="M155.386,174.246h26.427a1.888,1.888,0,1,0,0-3.775H155.386a1.888,1.888,0,1,0,0,3.775Z" transform="translate(-123.296 -132.762)" fill="#8c0428"/>
        <path id="Path_9" data-name="Path 9" d="M155.386,123.046h7.55a1.888,1.888,0,1,0,0-3.775h-7.55a1.888,1.888,0,1,0,0,3.775Z" transform="translate(-123.296 -92.888)" fill="#8c0428"/>
        <path id="Path_10" data-name="Path 10" d="M238.752,119.27h-15.1a1.888,1.888,0,0,0,0,3.775h15.1a1.888,1.888,0,1,0,0-3.775Z" transform="translate(-176.461 -92.887)" fill="#8c0428"/>
        <path id="Path_11" data-name="Path 11" d="M105.682,0H33.952A17.009,17.009,0,0,0,16.964,16.922v.089a17.056,17.056,0,0,0,8.492,14.648,1.887,1.887,0,0,0,1.891-3.266,13.188,13.188,0,0,1,6.6-24.618h71.729a13.229,13.229,0,0,1,13.213,13.213v79.28a5.493,5.493,0,0,1-.772,2.775,1.888,1.888,0,0,0,3.254,1.914,9.258,9.258,0,0,0,1.293-4.689V16.988A17.006,17.006,0,0,0,105.682,0Z" transform="translate(-16.964)" fill="#8c0428"/>
        <path id="Path_12" data-name="Path 12" d="M363.882,352.463a11.326,11.326,0,1,0-11.326,11.326A11.337,11.337,0,0,0,363.882,352.463Zm-11.326,7.55a7.55,7.55,0,1,1,7.55-7.55A7.558,7.558,0,0,1,352.557,360.013Z" transform="translate(-269.502 -265.676)" fill="#8c0428"/>
        <path id="Path_13" data-name="Path 13" d="M324.345,437.5a1.889,1.889,0,0,0-2.579.691l-4.064,7.043-.646-.974a1.878,1.878,0,0,0-1.461-.844l-1.167-.07,4.132-7.154a1.888,1.888,0,0,0-3.271-1.888l-5.657,9.8a1.888,1.888,0,0,0,1.523,2.828l3.271.2,1.806,2.735a1.885,1.885,0,0,0,1.574.847h.059a1.9,1.9,0,0,0,1.578-.944l5.593-9.687A1.887,1.887,0,0,0,324.345,437.5Z" transform="translate(-244.697 -337.499)" fill="#8c0428"/>
        <path id="Path_14" data-name="Path 14" d="M413.688,434.706a1.888,1.888,0,0,0-3.271,1.888l4.083,7.065-1.167.07a1.9,1.9,0,0,0-1.463.844l-.642.974-4.043-7.007a1.888,1.888,0,0,0-3.271,1.888l5.572,9.651a1.9,1.9,0,0,0,1.578.944h.059a1.894,1.894,0,0,0,1.576-.847l1.8-2.733,3.269-.2a1.888,1.888,0,0,0,1.523-2.827Z" transform="translate(-318.122 -337.811)" fill="#8c0428"/>
        <path id="Path_15" data-name="Path 15" d="M155.386,225.446h11.326a1.888,1.888,0,0,0,0-3.775H155.386a1.888,1.888,0,0,0,0,3.775Z" transform="translate(-123.296 -172.636)" fill="#8c0428"/>
        <path id="Path_16" data-name="Path 16" d="M155.386,276.646h22.651a1.888,1.888,0,1,0,0-3.775H155.386a1.888,1.888,0,1,0,0,3.775Z" transform="translate(-123.296 -212.511)" fill="#8c0428"/>
        <path id="Path_17" data-name="Path 17" d="M155.332,340.016a1.887,1.887,0,1,0,3.375-1.688c-1.869-3.737-2.288-7.09-1.125-8.972a3.485,3.485,0,0,1,3.213-1.51,1.53,1.53,0,0,1,1.448.612c1.406,2.027.07,8.2-1.329,11.939a1.888,1.888,0,0,0,3.1,2c.806-.8,1.68-1.606,2.441-2.258v.923a1.888,1.888,0,0,0,3.222,1.335,23.592,23.592,0,0,1,2.7-2.312c-.023.047-.045.092-.068.136a1.89,1.89,0,0,0,1.691,2.729h7.55a1.888,1.888,0,0,0,0-3.775h-4.913a3.646,3.646,0,0,0-.34-2.548,2.626,2.626,0,0,0-2.3-1.227,7.35,7.35,0,0,0-3.792,1.589,2.18,2.18,0,0,0-1.323-1.806c-.5-.208-1.153-.479-2.729.466.621-3.252.8-7-.817-9.338a5.239,5.239,0,0,0-4.551-2.237,7.205,7.205,0,0,0-6.425,3.3C152.487,330.419,152.836,335.027,155.332,340.016Z" transform="translate(-123.042 -252.385)" fill="#8c0428"/>
        <path id="Path_18" data-name="Path 18" d="M312.683,274.759a1.887,1.887,0,0,0-1.888-1.888H291.919a1.888,1.888,0,0,0,0,3.775H310.8A1.887,1.887,0,0,0,312.683,274.759Z" transform="translate(-229.628 -212.511)" fill="#8c0428"/>
      </g>
    </g>
  </g>
</svg>
