<svg xmlns="http://www.w3.org/2000/svg" width="97.934" height="113" viewBox="0 0 97.934 113">
  <g id="exam" transform="translate(0 0)">
    <g id="Group_593" data-name="Group 593">
      <g id="Group_592" data-name="Group 592">
        <path id="Path_19" data-name="Path 19" d="M121.35,362.167h11.3a1.883,1.883,0,1,0,0-3.767h-11.3a1.883,1.883,0,1,0,0,3.767Z" transform="translate(-100.634 -279.301)" fill="#8c0428"/>
        <path id="Path_20" data-name="Path 20" d="M121.35,413.367h22.6a1.883,1.883,0,0,0,0-3.767h-22.6a1.883,1.883,0,1,0,0,3.767Z" transform="translate(-100.634 -319.201)" fill="#8c0428"/>
        <path id="Path_21" data-name="Path 21" d="M157.693,227.954a3.813,3.813,0,0,1,1.712,1.77,1.883,1.883,0,1,0,3.413-1.593,7.6,7.6,0,0,0-3.413-3.533,1.884,1.884,0,1,0-1.712,3.356Z" transform="translate(-129.622 -174.869)" fill="#8c0428"/>
        <path id="Path_22" data-name="Path 22" d="M227.4,360.283a1.883,1.883,0,0,0-1.883-1.883H206.684a1.883,1.883,0,0,0,0,3.766h18.833A1.882,1.882,0,0,0,227.4,360.283Z" transform="translate(-167.134 -279.3)" fill="#8c0428"/>
        <path id="Path_23" data-name="Path 23" d="M157.693,74.6a3.8,3.8,0,0,1,1.712,1.77,1.883,1.883,0,1,0,3.413-1.593,7.587,7.587,0,0,0-3.413-3.533,1.884,1.884,0,1,0-1.712,3.356Z" transform="translate(-129.622 -55.361)" fill="#8c0428"/>
        <path id="Path_24" data-name="Path 24" d="M88.39,31.661a10.638,10.638,0,0,0-3.057,7.889,10.638,10.638,0,0,0,3.057,7.889,14.969,14.969,0,0,0,.71,18.993V73.45a1.883,1.883,0,0,0,3.767,0V69.527A15.063,15.063,0,1,0,91.005,44.74,7,7,0,0,1,89.1,39.55a7,7,0,0,1,1.906-5.19A15.07,15.07,0,1,0,92.866,9.571v-5.8h50.07l18.282,18.282a1.883,1.883,0,1,0,2.663-2.663L145.048.552A1.875,1.875,0,0,0,143.716,0H90.983A1.884,1.884,0,0,0,89.1,1.883V12.667a14.969,14.969,0,0,0-.71,18.993ZM100.4,11.3A11.3,11.3,0,1,1,89.1,22.6,11.311,11.311,0,0,1,100.4,11.3Zm0,33.9A11.3,11.3,0,1,1,89.1,56.5,11.311,11.311,0,0,1,100.4,45.2Z" transform="translate(-74.033 0)" fill="#8c0428"/>
        <path id="Path_25" data-name="Path 25" d="M339.333,360.283a1.883,1.883,0,0,0-1.883-1.883h-11.3a1.883,1.883,0,0,0,0,3.766h11.3A1.882,1.882,0,0,0,339.333,360.283Z" transform="translate(-260.234 -279.3)" fill="#8c0428"/>
        <path id="Path_26" data-name="Path 26" d="M324.15,204.8H309.083a1.883,1.883,0,0,0,0,3.767H324.15a1.883,1.883,0,1,0,0-3.767Z" transform="translate(-246.933 -159.6)" fill="#8c0428"/>
        <path id="Path_27" data-name="Path 27" d="M257.883,413.367h18.833a1.883,1.883,0,1,0,0-3.767H257.883a1.883,1.883,0,1,0,0,3.767Z" transform="translate(-207.033 -319.201)" fill="#8c0428"/>
        <path id="Path_28" data-name="Path 28" d="M130.183,26.367H111.35a5.657,5.657,0,0,1-5.65-5.65V11.3a1.883,1.883,0,1,0-3.767,0v9.417a9.427,9.427,0,0,0,9.417,9.417H128.3v73.45a5.589,5.589,0,0,1-5.65,5.65H43.55a5.657,5.657,0,0,1-5.65-5.65V9.417a5.657,5.657,0,0,1,5.65-5.65A1.883,1.883,0,0,0,43.55,0a9.427,9.427,0,0,0-9.417,9.417v94.167A9.427,9.427,0,0,0,43.55,113h79.1a9.316,9.316,0,0,0,9.417-9.417V28.25A1.883,1.883,0,0,0,130.183,26.367Z" transform="translate(-34.133)" fill="#8c0428"/>
        <path id="Path_29" data-name="Path 29" d="M230.4,309.083a1.884,1.884,0,0,0,1.883,1.883h28.25a1.883,1.883,0,0,0,0-3.767h-28.25A1.884,1.884,0,0,0,230.4,309.083Z" transform="translate(-187.083 -239.4)" fill="#8c0428"/>
        <path id="Path_30" data-name="Path 30" d="M247.467,257.883a1.884,1.884,0,0,0,1.883,1.883h9.417a1.883,1.883,0,0,0,0-3.767H249.35A1.884,1.884,0,0,0,247.467,257.883Z" transform="translate(-200.384 -199.5)" fill="#8c0428"/>
        <path id="Path_31" data-name="Path 31" d="M333.683,259.767a1.883,1.883,0,1,0,0-3.767H326.15a1.883,1.883,0,0,0,0,3.767Z" transform="translate(-260.234 -199.501)" fill="#8c0428"/>
        <path id="Path_32" data-name="Path 32" d="M248.35,204.8h-7.533a1.883,1.883,0,1,0,0,3.767h7.533a1.883,1.883,0,1,0,0-3.767Z" transform="translate(-193.734 -159.6)" fill="#8c0428"/>
      </g>
    </g>
  </g>
</svg>
