<svg xmlns="http://www.w3.org/2000/svg" width="112.826" height="112.826" viewBox="0 0 112.826 112.826">
  <g id="model" transform="translate(0)">
    <path id="Path_112" data-name="Path 112" d="M341.459,90.919A5.459,5.459,0,1,0,336,85.459,5.466,5.466,0,0,0,341.459,90.919Zm0-7.279a1.82,1.82,0,1,1-1.82,1.82A1.823,1.823,0,0,1,341.459,83.64Zm0,0" transform="translate(-259.569 -61.802)" fill="#8c0428"/>
    <path id="Path_113" data-name="Path 113" d="M98.04,40.035,93.415,29.049a12.677,12.677,0,0,0-6.065-16.884V3.64A3.643,3.643,0,0,0,83.71,0H80.07a3.643,3.643,0,0,0-3.64,3.64v8.526a12.677,12.677,0,0,0-6.065,16.884L65.739,40.035H56.413V0H34.576V40.035h-3.64V15.826l-9.1-13.648-9.1,13.648V40.035H0V97.2l15.624,15.624h97.2V40.035Zm3.667,18.092a2.524,2.524,0,0,1,.2.988v.2a2.556,2.556,0,0,1-4.91,1L86.552,35.5a12.786,12.786,0,0,0,4.4-2.907Zm.2,18.3v18.2H80.07v-18.2ZM81.89,36.4c.361,0,.715-.024,1.068-.054L87.1,46.17a12.888,12.888,0,0,1-10.412,0l4.138-9.828c.353.03.707.054,1.068.054ZM80.07,3.64h3.64v7.425a11.435,11.435,0,0,0-3.64,0Zm1.82,10.919a9.1,9.1,0,1,1-9.1,9.1A9.11,9.11,0,0,1,81.89,14.558ZM77.228,35.5,66.78,60.311a2.554,2.554,0,0,1-4.908-.993v-.2a2.542,2.542,0,0,1,.2-.99L72.824,32.594a12.791,12.791,0,0,0,4.4,2.906ZM10.919,72.791H27.3V83.71h9.1v3.64H10.919ZM30.936,80.07V69.152H10.919v-3.64H21.837v-1.82A5.466,5.466,0,0,1,27.3,58.233h1.82V50.954h3.64V67.332H54.593V50.954h6.55l-2.424,5.758a6.144,6.144,0,0,0-.486,2.4v.2a6.2,6.2,0,0,0,3.64,5.628v5.219a7.2,7.2,0,0,0-3.64-1.012,7.279,7.279,0,1,0,7.279,7.279V65.406a6.159,6.159,0,0,0,3.64-2.085V87.349H40.035V80.07Zm-20.018-18.2V50.954H25.477v3.823a9.121,9.121,0,0,0-7.1,7.1ZM36.4,50.954H50.954V63.692H36.4ZM61.872,76.431a3.64,3.64,0,1,1-3.64-3.64A3.643,3.643,0,0,1,61.872,76.431ZM38.215,3.64H52.774v3.64H45.494v3.64h7.279v3.64h-3.64V18.2h3.64v3.64H45.494v3.64h7.279v3.64h-3.64v3.64h3.64v7.279H38.215Zm-14.558,36.4V18.2H27.3V40.035Zm2.06-25.477H17.96l3.878-5.817ZM16.378,18.2h3.64V40.035h-3.64Zm-1.82,88.416L6.213,98.268h8.345Zm94.628,2.573H18.2V94.629H3.64V43.675H64.208l-1.533,3.64H7.279V90.989H72.791V55.414l2.476-5.881a16.144,16.144,0,0,0,13.245,0l5.131,12.188a6.171,6.171,0,0,0,4.624,3.685v7.385H76.431V98.268h29.116V72.791h-3.64V64.944a6.2,6.2,0,0,0,3.64-5.628v-.2a6.144,6.144,0,0,0-.486-2.4L99.572,43.675h9.614Zm0,0" transform="translate(0 0)" fill="#8c0428"/>
    <path id="Path_114" data-name="Path 114" d="M96,426.919h40.035V416H96Zm21.837-3.64H114.2v-3.64h3.64Zm3.64-3.64h3.64v3.64h-3.64Zm-10.919,3.64h-3.64v-3.64h3.64Zm21.837,0h-3.64v-3.64h3.64ZM99.64,419.64h3.64v3.64H99.64Zm0,0" transform="translate(-74.163 -321.372)" fill="#8c0428"/>
    <path id="Path_115" data-name="Path 115" d="M288,448h40.035v3.64H288Zm0,0" transform="translate(-222.488 -346.093)" fill="#8c0428"/>
  </g>
</svg>
