<svg xmlns="http://www.w3.org/2000/svg" width="116.388" height="113" viewBox="0 0 116.388 113">
  <g id="network" transform="translate(0 0)">
    <g id="Group_602" data-name="Group 602">
      <g id="Group_601" data-name="Group 601">
        <path id="Path_49" data-name="Path 49" d="M51.592,426.667H36.074a1.94,1.94,0,1,0,0,3.879H51.592a1.94,1.94,0,1,0,0-3.879Z" transform="translate(-26.375 -333.065)" fill="#8c0428"/>
        <path id="Path_50" data-name="Path 50" d="M51.592,460.8H36.074a1.94,1.94,0,0,0,0,3.88H51.592a1.94,1.94,0,1,0,0-3.88Z" transform="translate(-26.375 -359.439)" fill="#8c0428"/>
        <path id="Path_51" data-name="Path 51" d="M36.074,396.413h7.759a1.94,1.94,0,1,0,0-3.879H36.074a1.94,1.94,0,1,0,0,3.879Z" transform="translate(-26.375 -305.99)" fill="#8c0428"/>
        <path id="Path_52" data-name="Path 52" d="M140.413,42.676h21.338v3.88h-7.759a1.94,1.94,0,0,0,0,3.879h19.4a1.94,1.94,0,1,0,0-3.879H165.63v-3.88h21.338a3.884,3.884,0,0,0,3.88-3.88V3.879A3.884,3.884,0,0,0,186.968,0H140.413a3.884,3.884,0,0,0-3.88,3.88V38.8A3.884,3.884,0,0,0,140.413,42.676Zm0-38.8h46.555l0,27.157H140.413Zm0,31.037h46.559V38.8H140.413Z" transform="translate(-105.496)" fill="#8c0428"/>
        <path id="Path_53" data-name="Path 53" d="M70.207,258.332a1.939,1.939,0,0,0,1.94-1.94v-5.819h33.335A5.794,5.794,0,0,0,109,254.094v2.3a1.94,1.94,0,1,0,3.879,0v-2.3a5.8,5.8,0,0,0,3.521-3.523H149.74v5.819a1.94,1.94,0,0,0,3.879,0v-7.759a1.939,1.939,0,0,0-1.94-1.94H116.4a5.8,5.8,0,0,0-3.521-3.523v-2.3a1.94,1.94,0,1,0-3.879,0v2.3a5.8,5.8,0,0,0-3.521,3.523H70.207a1.939,1.939,0,0,0-1.94,1.94v7.759A1.939,1.939,0,0,0,70.207,258.332Zm40.736-11.639a1.94,1.94,0,1,1-1.94,1.94A1.942,1.942,0,0,1,110.942,246.693Z" transform="translate(-52.749 -186.517)" fill="#8c0428"/>
        <path id="Path_54" data-name="Path 54" d="M394.474,396.413h7.759a1.94,1.94,0,1,0,0-3.879h-7.759a1.94,1.94,0,1,0,0,3.879Z" transform="translate(-303.303 -305.99)" fill="#8c0428"/>
        <path id="Path_55" data-name="Path 55" d="M210.237,341.333H183.08a3.884,3.884,0,0,0-3.88,3.88v31.037a3.884,3.884,0,0,0,3.88,3.88h27.157a3.884,3.884,0,0,0,3.88-3.88V345.213A3.884,3.884,0,0,0,210.237,341.333ZM183.08,376.249V345.213h27.157l0,31.037Z" transform="translate(-138.464 -267.129)" fill="#8c0428"/>
        <path id="Path_56" data-name="Path 56" d="M31.037,341.333H3.88A3.884,3.884,0,0,0,0,345.213v31.037a3.883,3.883,0,0,0,3.88,3.88H31.037a3.884,3.884,0,0,0,3.88-3.88V345.213A3.884,3.884,0,0,0,31.037,341.333ZM3.88,376.249V345.213H31.037l0,31.037Z" transform="translate(0 -267.129)" fill="#8c0428"/>
        <path id="Path_57" data-name="Path 57" d="M409.991,460.8H394.473a1.94,1.94,0,1,0,0,3.88h15.518a1.94,1.94,0,1,0,0-3.88Z" transform="translate(-303.302 -359.439)" fill="#8c0428"/>
        <path id="Path_58" data-name="Path 58" d="M389.437,341.333H362.28a3.884,3.884,0,0,0-3.88,3.88v31.037a3.884,3.884,0,0,0,3.88,3.88h27.157a3.884,3.884,0,0,0,3.88-3.88V345.213A3.884,3.884,0,0,0,389.437,341.333ZM362.28,376.249V345.213h27.157l0,31.037Z" transform="translate(-276.928 -267.129)" fill="#8c0428"/>
        <path id="Path_59" data-name="Path 59" d="M409.991,426.667H394.473a1.94,1.94,0,1,0,0,3.879h15.518a1.94,1.94,0,1,0,0-3.879Z" transform="translate(-303.302 -333.065)" fill="#8c0428"/>
        <path id="Path_60" data-name="Path 60" d="M230.791,426.667H215.273a1.94,1.94,0,0,0,0,3.879h15.518a1.94,1.94,0,1,0,0-3.879Z" transform="translate(-164.838 -333.065)" fill="#8c0428"/>
        <path id="Path_61" data-name="Path 61" d="M215.274,396.413h7.759a1.94,1.94,0,1,0,0-3.879h-7.759a1.94,1.94,0,1,0,0,3.879Z" transform="translate(-164.839 -305.99)" fill="#8c0428"/>
        <path id="Path_62" data-name="Path 62" d="M230.791,460.8H215.273a1.94,1.94,0,0,0,0,3.88h15.518a1.94,1.94,0,0,0,0-3.88Z" transform="translate(-164.838 -359.439)" fill="#8c0428"/>
      </g>
    </g>
  </g>
</svg>
