<svg id="briefcase" xmlns="http://www.w3.org/2000/svg" width="96.805" height="96.805" viewBox="0 0 96.805 96.805">
  <g id="Group_629" data-name="Group 629">
    <g id="Group_628" data-name="Group 628">
      <path id="Path_103" data-name="Path 103" d="M205.481,34.133H195.8a8.076,8.076,0,0,0-8.067,8.067,1.613,1.613,0,0,0,3.227,0,4.846,4.846,0,0,1,4.84-4.84h9.68a4.846,4.846,0,0,1,4.84,4.84,1.613,1.613,0,1,0,3.227,0A8.076,8.076,0,0,0,205.481,34.133Z" transform="translate(-152.238 -27.679)" fill="#fff"/>
      <path id="Path_104" data-name="Path 104" d="M155.213,16.134a1.614,1.614,0,0,0,1.613-1.613c0-5.805,5.489-11.294,11.294-11.294h9.68a11.739,11.739,0,0,1,11.294,11.294,1.614,1.614,0,0,0,3.227,0A14.9,14.9,0,0,0,177.8,0h-9.68c-7.6,0-14.521,6.922-14.521,14.521A1.614,1.614,0,0,0,155.213,16.134Z" transform="translate(-124.559)" fill="#fff"/>
      <path id="Path_105" data-name="Path 105" d="M95.192,366.933a1.614,1.614,0,0,0-1.613,1.613v17.748a4.846,4.846,0,0,1-4.84,4.84H8.067a4.846,4.846,0,0,1-4.84-4.84V368.546a1.613,1.613,0,0,0-3.227,0v17.748a8.076,8.076,0,0,0,8.067,8.067H88.738a8.076,8.076,0,0,0,8.067-8.067V368.546A1.614,1.614,0,0,0,95.192,366.933Z" transform="translate(0 -297.556)" fill="#fff"/>
      <path id="Path_106" data-name="Path 106" d="M88.738,102.4H8.067A8.076,8.076,0,0,0,0,110.467v32.268A8.076,8.076,0,0,0,8.067,150.8h35.5a1.614,1.614,0,0,0,1.613-1.613V134.668h6.454v14.521a1.614,1.614,0,0,0,1.613,1.613h35.5a8.076,8.076,0,0,0,8.067-8.067V110.467A8.076,8.076,0,0,0,88.738,102.4Zm4.84,40.335a4.846,4.846,0,0,1-4.84,4.84H54.856V134.668a3.23,3.23,0,0,0-3.227-3.227H45.176a3.23,3.23,0,0,0-3.227,3.227v12.907H8.067a4.846,4.846,0,0,1-4.84-4.84V110.467a4.846,4.846,0,0,1,4.84-4.84h8.067v37.109a1.613,1.613,0,0,0,3.227,0V105.627H77.444v37.109a1.613,1.613,0,0,0,3.227,0V105.627h8.067a4.846,4.846,0,0,1,4.84,4.84v32.268Z" transform="translate(0 -83.039)" fill="#fff"/>
      <path id="Path_107" data-name="Path 107" d="M250.915,385.613A1.613,1.613,0,0,0,249.3,384h-.016a1.613,1.613,0,1,0,1.629,1.613Z" transform="translate(-200.851 -311.396)" fill="#fff"/>
      <path id="Path_108" data-name="Path 108" d="M223.48,375.467a1.614,1.614,0,0,0-1.613,1.613v4.84a3.23,3.23,0,0,0,3.227,3.227h6.454a3.23,3.23,0,0,0,3.227-3.227v-4.84a1.613,1.613,0,0,0-3.227,0v4.84h-6.454v-4.84A1.615,1.615,0,0,0,223.48,375.467Z" transform="translate(-179.918 -304.477)" fill="#fff"/>
    </g>
  </g>
</svg>
