<svg xmlns="http://www.w3.org/2000/svg" width="94.681" height="94.681" viewBox="0 0 94.681 94.681">
  <g id="stats" transform="translate(1 24.412)">
    <g id="Group_620" data-name="Group 620" transform="translate(-1 -24.412)">
      <g id="Group_619" data-name="Group 619" transform="translate(0)">
        <path id="Path_75" data-name="Path 75" d="M91.646,71.713a3.159,3.159,0,0,1-3.156-3.156,1.578,1.578,0,0,0-3.156,0,6.307,6.307,0,0,0,4.734,6.088v.224a1.578,1.578,0,0,0,3.156,0v-.224a6.3,6.3,0,0,0-1.578-12.4A3.156,3.156,0,1,1,94.8,59.089a1.578,1.578,0,1,0,3.156,0A6.307,6.307,0,0,0,93.224,53v-.224a1.578,1.578,0,1,0-3.156,0V53a6.3,6.3,0,0,0,1.578,12.4,3.156,3.156,0,1,1,0,6.312Z" transform="translate(-69.554 -41.731)" fill="#fff"/>
        <path id="Path_76" data-name="Path 76" d="M22.092,44.184A22.092,22.092,0,1,0,0,22.092,22.116,22.116,0,0,0,22.092,44.184Zm0-41.028A18.936,18.936,0,1,1,3.156,22.092,18.957,18.957,0,0,1,22.092,3.156Z" transform="translate(0)" fill="#fff"/>
        <path id="Path_77" data-name="Path 77" d="M88.369,187.733a6.318,6.318,0,0,0-6.312,6.312,6.23,6.23,0,0,0,.895,3.186L66.306,213.876a6.12,6.12,0,0,0-6.364,0l-7.18-7.18a6.235,6.235,0,0,0,.89-3.178,6.312,6.312,0,1,0-12.624,0,6.215,6.215,0,0,0,.391,2.111l-31,31a6.254,6.254,0,0,0-4.1-1.556,6.312,6.312,0,1,0,6.312,6.312,6.215,6.215,0,0,0-.391-2.111l31-31a6.163,6.163,0,0,0,7.3.658l7.172,7.172a6.241,6.241,0,0,0-.9,3.194,6.312,6.312,0,1,0,12.624,0,6.23,6.23,0,0,0-.895-3.186l16.645-16.645a6.228,6.228,0,0,0,3.186.895,6.312,6.312,0,1,0,0-12.624ZM6.312,244.541a3.156,3.156,0,1,1,3.156-3.156A3.159,3.159,0,0,1,6.312,244.541ZM47.34,206.669a3.156,3.156,0,1,1,3.156-3.156A3.159,3.159,0,0,1,47.34,206.669Zm15.78,15.78a3.156,3.156,0,1,1,3.156-3.156A3.159,3.159,0,0,1,63.12,222.449ZM88.369,197.2a3.147,3.147,0,0,1-2.211-.909c-.006-.006-.008-.016-.014-.022s-.016-.008-.022-.014a3.152,3.152,0,1,1,2.247.945Z" transform="translate(0 -153.017)" fill="#fff"/>
      </g>
    </g>
  </g>
</svg>
