<svg xmlns="http://www.w3.org/2000/svg" width="112.258" height="116" viewBox="0 0 112.258 116">
  <g id="capitol" transform="translate(-2 -1)">
    <path id="Path_124" data-name="Path 124" d="M112.387,79.581a1.871,1.871,0,0,0,1.871-1.871V72.1a1.871,1.871,0,0,0-1.871-1.871H80.581V44.032a1.871,1.871,0,0,0,1.871-1.871,24.339,24.339,0,0,0-22.47-24.229c0-.032.019-.06.019-.094V14.1H71.226A1.871,1.871,0,0,0,73.1,12.226V4.742a1.871,1.871,0,0,0-1.871-1.871H60a1.871,1.871,0,1,0-3.742,0V17.839c0,.034.017.062.019.094a24.339,24.339,0,0,0-22.47,24.229,1.871,1.871,0,0,0,1.871,1.871V70.226H3.871A1.871,1.871,0,0,0,2,72.1V77.71a1.871,1.871,0,0,0,1.871,1.871h1.94v28.065H3.871A1.871,1.871,0,0,0,2,109.516v5.613A1.871,1.871,0,0,0,3.871,117H112.387a1.871,1.871,0,0,0,1.871-1.871v-5.613a1.871,1.871,0,0,0-1.871-1.871h-1.94V79.581ZM69.355,6.613v3.742H60V6.613ZM58.129,21.581a20.609,20.609,0,0,1,20.5,18.71H37.633a20.609,20.609,0,0,1,20.5-18.71ZM39.419,44.032H76.839V70.226H39.419ZM5.742,73.968H110.516v1.871H5.742Zm104.774,39.29H5.742v-1.871H110.516Zm-3.811-5.613H9.553V79.581H106.7Z" transform="translate(0)" fill="#8c0428"/>
    <path id="Path_125" data-name="Path 125" d="M32.871,25A1.871,1.871,0,0,0,31,26.871v18.71a1.871,1.871,0,1,0,3.742,0V26.871A1.871,1.871,0,0,0,32.871,25Z" transform="translate(25.258 20.903)" fill="#8c0428"/>
    <path id="Path_126" data-name="Path 126" d="M26.871,25A1.871,1.871,0,0,0,25,26.871v18.71a1.871,1.871,0,1,0,3.742,0V26.871A1.871,1.871,0,0,0,26.871,25Z" transform="translate(20.032 20.903)" fill="#8c0428"/>
    <path id="Path_127" data-name="Path 127" d="M38.871,25A1.871,1.871,0,0,0,37,26.871V38.1a1.871,1.871,0,1,0,3.742,0V26.871A1.871,1.871,0,0,0,38.871,25Z" transform="translate(30.484 20.903)" fill="#8c0428"/>
    <path id="Path_128" data-name="Path 128" d="M38.871,34A1.871,1.871,0,0,0,37,35.871v1.871a1.871,1.871,0,1,0,3.742,0V35.871A1.871,1.871,0,0,0,38.871,34Z" transform="translate(30.484 28.742)" fill="#8c0428"/>
    <path id="Path_129" data-name="Path 129" d="M32.871,68.323a1.871,1.871,0,0,0,1.871-1.871V45.871a1.871,1.871,0,1,0-3.742,0V66.452A1.871,1.871,0,0,0,32.871,68.323Z" transform="translate(25.258 37.452)" fill="#8c0428"/>
    <path id="Path_130" data-name="Path 130" d="M26.871,68.323a1.871,1.871,0,0,0,1.871-1.871V45.871a1.871,1.871,0,1,0-3.742,0V66.452A1.871,1.871,0,0,0,26.871,68.323Z" transform="translate(20.032 37.452)" fill="#8c0428"/>
    <path id="Path_131" data-name="Path 131" d="M38.871,60.839a1.871,1.871,0,0,0,1.871-1.871v-13.1a1.871,1.871,0,1,0-3.742,0v13.1A1.871,1.871,0,0,0,38.871,60.839Z" transform="translate(30.484 37.452)" fill="#8c0428"/>
    <path id="Path_132" data-name="Path 132" d="M50.871,68.323a1.871,1.871,0,0,0,1.871-1.871V45.871a1.871,1.871,0,1,0-3.742,0V66.452A1.871,1.871,0,0,0,50.871,68.323Z" transform="translate(40.935 37.452)" fill="#8c0428"/>
    <path id="Path_133" data-name="Path 133" d="M44.871,68.323a1.871,1.871,0,0,0,1.871-1.871V45.871a1.871,1.871,0,1,0-3.742,0V66.452A1.871,1.871,0,0,0,44.871,68.323Z" transform="translate(35.71 37.452)" fill="#8c0428"/>
    <path id="Path_134" data-name="Path 134" d="M56.871,60.839a1.871,1.871,0,0,0,1.871-1.871v-13.1a1.871,1.871,0,1,0-3.742,0v13.1A1.871,1.871,0,0,0,56.871,60.839Z" transform="translate(46.161 37.452)" fill="#8c0428"/>
    <path id="Path_135" data-name="Path 135" d="M38.871,59.613a1.871,1.871,0,0,0,1.871-1.871V55.871a1.871,1.871,0,1,0-3.742,0v1.871A1.871,1.871,0,0,0,38.871,59.613Z" transform="translate(30.484 46.161)" fill="#8c0428"/>
    <path id="Path_136" data-name="Path 136" d="M14.871,68.323a1.871,1.871,0,0,0,1.871-1.871V45.871a1.871,1.871,0,1,0-3.742,0V66.452A1.871,1.871,0,0,0,14.871,68.323Z" transform="translate(9.581 37.452)" fill="#8c0428"/>
    <path id="Path_137" data-name="Path 137" d="M8.871,68.323a1.871,1.871,0,0,0,1.871-1.871V45.871a1.871,1.871,0,1,0-3.742,0V66.452A1.871,1.871,0,0,0,8.871,68.323Z" transform="translate(4.355 37.452)" fill="#8c0428"/>
    <path id="Path_138" data-name="Path 138" d="M20.871,60.839a1.871,1.871,0,0,0,1.871-1.871v-13.1a1.871,1.871,0,1,0-3.742,0v13.1A1.871,1.871,0,0,0,20.871,60.839Z" transform="translate(14.806 37.452)" fill="#8c0428"/>
  </g>
</svg>
