<svg xmlns="http://www.w3.org/2000/svg" width="113.336" height="113.335" viewBox="0 0 113.336 113.335">
  <g id="bank" transform="translate(0)">
    <g id="Group_600" data-name="Group 600" transform="translate(0)">
      <g id="Group_599" data-name="Group 599" transform="translate(0)">
        <path id="Path_43" data-name="Path 43" d="M70.158,236.848a1.889,1.889,0,1,0,0,3.778H89.047a1.889,1.889,0,1,0,0-3.778H87.158V191.514h1.889a1.889,1.889,0,1,0,0-3.778H70.158a1.889,1.889,0,1,0,0,3.778h1.889v45.334Zm5.667-45.334H83.38v45.334H75.825V191.514Z" transform="translate(-53.157 -146.18)" fill="#8c0428"/>
        <path id="Path_44" data-name="Path 44" d="M1.889,37.78H111.446a1.889,1.889,0,0,0,1-3.494L57.663.285a1.89,1.89,0,0,0-1.991,0l-54.779,34a1.889,1.889,0,0,0,1,3.494ZM56.668,4.114,104.822,34H8.514Z" transform="translate(0 -0.002)" fill="#8c0428"/>
        <path id="Path_45" data-name="Path 45" d="M34.135,445.624a1.89,1.89,0,0,0,1.889,1.889H130.47a1.889,1.889,0,0,0,0-3.778H36.024A1.89,1.89,0,0,0,34.135,445.624Z" transform="translate(-26.579 -345.511)" fill="#8c0428"/>
        <path id="Path_46" data-name="Path 46" d="M111.448,477.868H1.891A1.89,1.89,0,0,0,0,479.757v3.778a1.889,1.889,0,1,0,3.778,0v-1.889H109.559v1.889a1.889,1.889,0,1,0,3.778,0v-3.778A1.889,1.889,0,0,0,111.448,477.868Z" transform="translate(-0.002 -372.089)" fill="#8c0428"/>
        <path id="Path_47" data-name="Path 47" d="M206.691,236.848a1.889,1.889,0,1,0,0,3.778H225.58a1.889,1.889,0,0,0,0-3.778h-1.889V191.514h1.889a1.889,1.889,0,0,0,0-3.778H206.691a1.889,1.889,0,1,0,0,3.778h1.889v45.334Zm5.667-45.334h7.556v45.334h-7.556Z" transform="translate(-159.468 -146.18)" fill="#8c0428"/>
        <path id="Path_48" data-name="Path 48" d="M343.224,236.848a1.889,1.889,0,1,0,0,3.778h18.889a1.889,1.889,0,0,0,0-3.778h-1.889V191.514h1.889a1.889,1.889,0,0,0,0-3.778H343.224a1.889,1.889,0,1,0,0,3.778h1.889v45.334Zm5.667-45.334h7.556v45.334h-7.556Z" transform="translate(-265.778 -146.18)" fill="#8c0428"/>
      </g>
    </g>
  </g>
</svg>
