<svg xmlns="http://www.w3.org/2000/svg" width="113" height="113" viewBox="0 0 113 113">
  <g id="light-bulb" transform="translate(0)">
    <g id="Group_597" data-name="Group 597">
      <g id="Group_596" data-name="Group 596">
        <path id="Path_35" data-name="Path 35" d="M181.849,166.549a1.883,1.883,0,0,0,1.883-1.883V138.3h5.65a9.417,9.417,0,1,0-9.417-9.417v5.65h-7.533v-5.65a9.417,9.417,0,1,0-9.417,9.417h5.65v26.367a1.883,1.883,0,1,0,3.767,0V138.3h7.533v26.367A1.883,1.883,0,0,0,181.849,166.549Zm1.883-37.667a5.65,5.65,0,1,1,5.65,5.65h-5.65Zm-15.067,5.65h-5.65a5.65,5.65,0,1,1,5.65-5.65Z" transform="translate(-119.699 -93.099)" fill="#8c0428"/>
        <path id="Path_36" data-name="Path 36" d="M58.554,6.411l7.209,6.051a1.883,1.883,0,1,0,2.422-2.885L60.976,3.526a1.884,1.884,0,0,0-2.422,2.885Z" transform="translate(-45.107 -2.405)" fill="#8c0428"/>
        <path id="Path_37" data-name="Path 37" d="M26.288,80.847l-8.846-3.219a1.884,1.884,0,0,0-1.288,3.541L25,84.388a1.884,1.884,0,0,0,1.288-3.541Z" transform="translate(-11.623 -60.408)" fill="#8c0428"/>
        <path id="Path_38" data-name="Path 38" d="M406.237,12.889a1.874,1.874,0,0,0,1.207-.441l7.213-6.055a1.883,1.883,0,0,0-2.42-2.885l-7.213,6.055a1.883,1.883,0,0,0,1.213,3.326Z" transform="translate(-315.11 -2.391)" fill="#8c0428"/>
        <path id="Path_39" data-name="Path 39" d="M11.3,162.15H1.883a1.883,1.883,0,1,0,0,3.766H11.3a1.883,1.883,0,1,0,0-3.766Z" transform="translate(0 -126.363)" fill="#8c0428"/>
        <path id="Path_40" data-name="Path 40" d="M452.414,78.73A1.881,1.881,0,0,0,450,77.606l-8.848,3.22a1.884,1.884,0,0,0,.644,3.654,1.826,1.826,0,0,0,.642-.115l8.85-3.22A1.882,1.882,0,0,0,452.414,78.73Z" transform="translate(-342.823 -60.389)" fill="#8c0428"/>
        <path id="Path_41" data-name="Path 41" d="M123,0A37.709,37.709,0,0,0,85.333,37.667c0,15.9,6.234,27.753,19.622,37.316a2.483,2.483,0,0,0,.228.139,5.947,5.947,0,0,1,2.633,4.36,5.631,5.631,0,0,0-2.207,9.034,5.639,5.639,0,0,0,0,7.533,5.647,5.647,0,0,0,4.207,9.417,1.883,1.883,0,1,0,0-3.767,1.883,1.883,0,1,1,0-3.767H128.65a1.883,1.883,0,1,0,0-3.767H109.816a1.883,1.883,0,1,1,0-3.767H128.65a1.883,1.883,0,1,0,0-3.767H109.816a1.883,1.883,0,1,1,0-3.767H128.65a1.883,1.883,0,1,0,0-3.767H111.572a9.79,9.79,0,0,0-4.511-7.241C94.639,62.957,89.1,52.409,89.1,37.668a33.9,33.9,0,1,1,67.8,0c0,14.741-5.539,25.289-17.961,34.192-.866.5-4.639,3.032-4.639,9.125a1.883,1.883,0,0,0,1.883,1.883,1.883,1.883,0,1,1,0,3.767,1.883,1.883,0,1,0,0,3.767,1.883,1.883,0,1,1,0,3.767,1.883,1.883,0,1,0,0,3.767,1.885,1.885,0,0,1,1.883,1.883,1.842,1.842,0,0,1-1.883,1.883H117.35a1.884,1.884,0,0,0-1.883,1.883v3.766a5.657,5.657,0,0,0,5.65,5.65h3.767a5.657,5.657,0,0,0,5.65-5.65v-1.883h5.65a5.647,5.647,0,0,0,4.207-9.417,5.639,5.639,0,0,0,0-7.533,5.63,5.63,0,0,0-2.209-9.034,5.96,5.96,0,0,1,2.61-4.349,1.777,1.777,0,0,0,.252-.151c13.387-9.564,19.622-21.421,19.622-37.316A37.709,37.709,0,0,0,123,0Zm3.767,107.35a1.885,1.885,0,0,1-1.883,1.883h-3.767a1.886,1.886,0,0,1-1.883-1.883v-1.883h7.533Z" transform="translate(-66.5)" fill="#8c0428"/>
        <path id="Path_42" data-name="Path 42" d="M463.567,162.133H454.15a1.883,1.883,0,1,0,0,3.766h9.417a1.883,1.883,0,0,0,0-3.766Z" transform="translate(-352.45 -126.35)" fill="#8c0428"/>
      </g>
    </g>
  </g>
</svg>
