<svg xmlns="http://www.w3.org/2000/svg" width="92.492" height="99.092" viewBox="0 0 92.492 99.092">
  <g id="exam_1_" data-name="exam(1)" transform="translate(-17.051 0)">
    <g id="Group_622" data-name="Group 622" transform="translate(17.051)">
      <g id="Group_621" data-name="Group 621">
        <path id="Path_78" data-name="Path 78" d="M320.4,308.851a1.652,1.652,0,0,0-1.651-1.651h-9.909a1.651,1.651,0,0,0,0,3.3h9.909A1.652,1.652,0,0,0,320.4,308.851Z" transform="translate(-251.033 -247.745)" fill="#fff"/>
        <path id="Path_79" data-name="Path 79" d="M327.554,52.576V44.318a1.651,1.651,0,0,0-3.3,0v8.258a8.267,8.267,0,0,0,8.258,8.258h14.864V92.213a1.651,1.651,0,0,0,3.3,0V59.182a1.652,1.652,0,0,0-1.651-1.651H332.509A4.961,4.961,0,0,1,327.554,52.576Z" transform="translate(-264.796 -34.409)" fill="#fff"/>
        <path id="Path_80" data-name="Path 80" d="M304.981,204.8H291.768a1.651,1.651,0,0,0,0,3.3h13.212a1.651,1.651,0,0,0,0-3.3Z" transform="translate(-237.268 -165.163)" fill="#fff"/>
        <path id="Path_81" data-name="Path 81" d="M218,206.451a1.652,1.652,0,0,0-1.651-1.651h-9.909a1.651,1.651,0,1,0,0,3.3h9.909A1.652,1.652,0,0,0,218,206.451Z" transform="translate(-168.451 -165.163)" fill="#fff"/>
        <path id="Path_82" data-name="Path 82" d="M206.435,256a1.651,1.651,0,1,0,0,3.3h3.3a1.651,1.651,0,1,0,0-3.3Z" transform="translate(-168.45 -206.454)" fill="#fff"/>
        <path id="Path_83" data-name="Path 83" d="M206.435,156.9h16.515a1.651,1.651,0,0,0,0-3.3H206.435a1.651,1.651,0,0,0,0,3.3Z" transform="translate(-168.45 -123.873)" fill="#fff"/>
        <path id="Path_84" data-name="Path 84" d="M257.635,259.3h16.515a1.651,1.651,0,0,0,0-3.3H257.635a1.651,1.651,0,1,0,0,3.3Z" transform="translate(-209.741 -206.455)" fill="#fff"/>
        <path id="Path_85" data-name="Path 85" d="M308.835,358.4a1.651,1.651,0,0,0,0,3.3h3.3a1.651,1.651,0,0,0,0-3.3Z" transform="translate(-251.032 -289.036)" fill="#fff"/>
        <path id="Path_86" data-name="Path 86" d="M219.648,307.2H206.435a1.651,1.651,0,0,0,0,3.3h13.212a1.651,1.651,0,1,0,0-3.3Z" transform="translate(-168.45 -247.745)" fill="#fff"/>
        <path id="Path_87" data-name="Path 87" d="M219.648,358.4H206.435a1.651,1.651,0,0,0,0,3.3h13.212a1.651,1.651,0,1,0,0-3.3Z" transform="translate(-168.45 -289.036)" fill="#fff"/>
        <path id="Path_88" data-name="Path 88" d="M341.551,329.808l-3.3-3.3a6.205,6.205,0,0,0-8.941,0l-21.638,21.638a1.654,1.654,0,0,0-.484,1.168v9.909a1.652,1.652,0,0,0,1.651,1.651h9.909a1.654,1.654,0,0,0,1.168-.484l21.638-21.638A6.051,6.051,0,0,0,341.551,329.808Zm-14.38,3.5,2.619,2.619-14.349,14.349-2.619-2.619Zm-16.684,24.258v-7.574l7.574,7.574Zm9.909-2.335-2.619-2.619,14.349-14.349,2.619,2.619Zm18.819-18.819-2.135,2.135-7.574-7.574,2.135-2.135a2.817,2.817,0,0,1,4.271,0l3.3,3.3A2.776,2.776,0,0,1,339.215,336.414Z" transform="translate(-251.032 -261.779)" fill="#fff"/>
        <path id="Path_89" data-name="Path 89" d="M68.248,95.789H25.309a4.961,4.961,0,0,1-4.955-4.955V8.258A4.961,4.961,0,0,1,25.309,3.3H77.474L93.505,19.335A1.651,1.651,0,0,0,95.841,17L79.325.484A1.648,1.648,0,0,0,78.158,0H25.309a8.267,8.267,0,0,0-8.258,8.258V90.834a8.267,8.267,0,0,0,8.258,8.258h42.94a1.652,1.652,0,0,0,0-3.3Z" transform="translate(-17.051)" fill="#fff"/>
        <path id="Path_90" data-name="Path 90" d="M219.648,409.6H206.435a1.651,1.651,0,0,0,0,3.3h13.212a1.651,1.651,0,1,0,0-3.3Z" transform="translate(-168.45 -330.326)" fill="#fff"/>
        <path id="Path_91" data-name="Path 91" d="M115.6,155.251a1.652,1.652,0,0,0-1.651-1.651h-9.909a1.652,1.652,0,0,0-1.651,1.651v9.909a1.652,1.652,0,0,0,1.651,1.651h9.909a1.652,1.652,0,0,0,1.651-1.651Zm-3.3,8.258h-6.606V156.9h6.606Z" transform="translate(-85.87 -123.872)" fill="#fff"/>
        <path id="Path_92" data-name="Path 92" d="M104.035,371.613h9.909a1.652,1.652,0,0,0,1.651-1.651v-9.909a1.652,1.652,0,0,0-1.651-1.651h-9.909a1.652,1.652,0,0,0-1.651,1.651v9.909A1.652,1.652,0,0,0,104.035,371.613Zm1.652-9.909h6.606v6.606h-6.606Z" transform="translate(-85.869 -289.036)" fill="#fff"/>
        <path id="Path_93" data-name="Path 93" d="M106.169,268.725a1.653,1.653,0,0,0,1.168.484,1.332,1.332,0,0,0,.164-.008,1.648,1.648,0,0,0,1.211-.727l6.606-9.909a1.652,1.652,0,1,0-2.748-1.833l-5.488,8.233-1.879-1.878a1.651,1.651,0,1,0-2.335,2.335Z" transform="translate(-85.867 -206.451)" fill="#fff"/>
      </g>
    </g>
  </g>
</svg>
