<svg xmlns="http://www.w3.org/2000/svg" width="97.196" height="97.188" viewBox="0 0 97.196 97.188">
  <g id="handshake" transform="translate(0 -0.023)">
    <g id="Group_624" data-name="Group 624" transform="translate(0 0.023)">
      <g id="Group_623" data-name="Group 623" transform="translate(0 0)">
        <path id="Path_94" data-name="Path 94" d="M136.425,101.424a3.213,3.213,0,0,0,.951,2.291l1.145,1.145a8.1,8.1,0,0,0,11.454,0l8.069-8.069a17.682,17.682,0,0,0,11.4,4.123h.008a17.738,17.738,0,0,0,12.613-5.234,1.62,1.62,0,0,0-2.291-2.291,14.52,14.52,0,0,1-10.324,4.285h0a14.478,14.478,0,0,1-10.3-4.268,1.621,1.621,0,0,0-2.291,0l-9.166,9.164a4.976,4.976,0,0,1-6.872,0l-1.145-1.145L159.14,81.951c1.816-1.816,3.541-1.816,5.726-1.816,2.339,0,5.253,0,8.019-2.765l4.581-4.583a1.62,1.62,0,0,0-2.291-2.291l-4.581,4.583c-1.817,1.816-3.543,1.816-5.728,1.816-2.339,0-5.252,0-8.017,2.765L137.377,99.132A3.216,3.216,0,0,0,136.425,101.424Z" transform="translate(-110.527 -56.733)" fill="#fff"/>
        <path id="Path_95" data-name="Path 95" d="M62.975,66.237A3.24,3.24,0,1,0,59.735,63,3.243,3.243,0,0,0,62.975,66.237Z" transform="translate(-48.395 -48.417)" fill="#fff"/>
        <path id="Path_96" data-name="Path 96" d="M157.511,108.995l4.581,4.581a1.62,1.62,0,0,0,2.291-2.291L159.8,106.7a1.62,1.62,0,1,0-2.291,2.291Z" transform="translate(-127.226 -86.067)" fill="#fff"/>
        <path id="Path_97" data-name="Path 97" d="M421.375,32.1a3.24,3.24,0,1,0-3.24-3.24A3.244,3.244,0,0,0,421.375,32.1Z" transform="translate(-338.758 -20.764)" fill="#fff"/>
        <path id="Path_98" data-name="Path 98" d="M409.1,179.7c-2.632,2.632-3.536,6.92-4.409,11.067-.774,3.681-1.576,7.489-3.527,9.439l-2.292,2.291a1.62,1.62,0,0,0,2.292,2.291l2.291-2.291c2.631-2.631,3.533-6.917,4.406-11.062.776-3.684,1.579-7.492,3.53-9.444A1.62,1.62,0,0,0,409.1,179.7Z" transform="translate(-322.764 -145.204)" fill="#fff"/>
        <path id="Path_99" data-name="Path 99" d="M380.171,34.516,353.777,8.123l5.334-5.334A1.62,1.62,0,0,0,356.821.5l-6.48,6.48a1.618,1.618,0,0,0,0,2.291L377.88,36.807a1.62,1.62,0,0,0,2.291-2.291Z" transform="translate(-283.449 -0.023)" fill="#fff"/>
        <path id="Path_100" data-name="Path 100" d="M101.548,220.984a1.62,1.62,0,0,0-2.291,2.292l17.181,17.181a3.241,3.241,0,0,1-4.583,4.583L94.675,227.857a1.62,1.62,0,0,0-2.291,2.291l21.764,21.764a3.24,3.24,0,0,1-4.583,4.583L88.949,235.876a1.62,1.62,0,1,0-2.291,2.291l18.326,18.326a3.244,3.244,0,0,1,0,4.583,3.314,3.314,0,0,1-4.581,0l-2.292-2.291h0L83.22,243.895a1.62,1.62,0,0,0-2.291,2.291l14.89,14.89a3.239,3.239,0,1,1-4.581,4.581L63.686,238.129c-4.2-4.2-5.112-9.5-5.918-14.169-.677-3.931-1.317-7.645-3.8-10.129a1.62,1.62,0,0,0-2.291,2.291c1.758,1.758,2.287,4.831,2.9,8.39.842,4.892,1.892,10.981,6.82,15.909l27.553,27.529a6.483,6.483,0,0,0,10.939-3.321,6.618,6.618,0,0,0,7.387-1.262,6.444,6.444,0,0,0,1.777-3.323,6.48,6.48,0,0,0,7.387-10.423l-.614-.616a6.476,6.476,0,0,0,2.906-10.839Z" transform="translate(-41.481 -172.857)" fill="#fff"/>
        <path id="Path_101" data-name="Path 101" d="M30.3,27.283l-9.72-9.72a1.62,1.62,0,1,0-2.291,2.291l8.574,8.574L.475,54.822a1.62,1.62,0,1,0,2.291,2.291L30.3,29.574A1.618,1.618,0,0,0,30.3,27.283Z" transform="translate(0 -13.849)" fill="#fff"/>
        <path id="Path_102" data-name="Path 102" d="M86.456,375.258a3.26,3.26,0,0,1-3.831-.855,3.2,3.2,0,0,1-.927-3.708,1.62,1.62,0,0,0-2.509-2.02,3.241,3.241,0,0,1-4.583-4.583,1.62,1.62,0,1,0-2.291-2.291l-1.145,1.145a3.239,3.239,0,0,1-4.581-4.581l1.145-1.145a1.62,1.62,0,0,0-1.957-2.548,3.206,3.206,0,0,1-3.77-.888c-1.422-1.422-1.416-3-.957-3.663a1.62,1.62,0,1,0-2.666-1.84c-1.31,1.9-1.275,5.185,1.333,7.794a7.225,7.225,0,0,0,3.246,1.931,6.482,6.482,0,0,0,7.481,8.937,6.474,6.474,0,0,0,7.811,5.775,7.127,7.127,0,0,0,2.078,3.975,6.808,6.808,0,0,0,4.845,2.1,6.03,6.03,0,0,0,2.78-.663,1.619,1.619,0,0,0-1.5-2.869Z" transform="translate(-46.614 -281.601)" fill="#fff"/>
      </g>
    </g>
  </g>
</svg>
